<svg width="35" height="36" viewBox="0 0 35 36" fill="none" xmlns="http://www.w3.org/2000/svg">
<path fill-rule="evenodd" clip-rule="evenodd" d="M17.5016 0.494141C12.7489 0.494141 12.1524 0.514922 10.2857 0.599871C8.42269 0.685184 7.15101 0.980135 6.03829 1.4129C4.88729 1.85988 3.91093 2.45781 2.93821 3.43089C1.96476 4.40361 1.36684 5.37997 0.918395 6.53061C0.484536 7.64369 0.189221 8.91574 0.105366 10.7781C0.0218752 12.6447 0 13.2416 0 17.9943C0 22.7471 0.0211461 23.3417 0.10573 25.2084C0.191408 27.0714 0.486359 28.3431 0.91876 29.4558C1.36611 30.6069 1.96403 31.5832 2.93711 32.5559C3.90947 33.5294 4.88583 34.1288 6.0361 34.5757C7.14955 35.0085 8.4216 35.3035 10.2843 35.3888C12.151 35.4737 12.7471 35.4945 17.4995 35.4945C22.2526 35.4945 22.8472 35.4737 24.7139 35.3888C26.5769 35.3035 27.8501 35.0085 28.9635 34.5757C30.1142 34.1288 31.0891 33.5294 32.0614 32.5559C33.0349 31.5832 33.6328 30.6068 34.0812 29.4562C34.5115 28.3431 34.8068 27.0711 34.8943 25.2088C34.9781 23.3421 35 22.7471 35 17.9943C35 13.2416 34.9781 12.6451 34.8943 10.7784C34.8068 8.91537 34.5115 7.64369 34.0812 6.53097C33.6328 5.37997 33.0349 4.40361 32.0614 3.43089C31.088 2.45744 30.1145 1.85952 28.9624 1.4129C27.8468 0.980135 26.5744 0.685184 24.7114 0.599871C22.8447 0.514922 22.2504 0.494141 17.4962 0.494141H17.5016ZM15.9317 3.6478C16.3977 3.64707 16.9176 3.6478 17.5016 3.6478C22.1742 3.6478 22.728 3.66458 24.5732 3.74843C26.2794 3.82645 27.2055 4.11156 27.8224 4.35109C28.639 4.66828 29.2213 5.04745 29.8334 5.65996C30.4459 6.27247 30.8251 6.85581 31.143 7.67248C31.3826 8.28863 31.668 9.21469 31.7457 10.921C31.8295 12.7658 31.8478 13.3199 31.8478 17.9903C31.8478 22.6607 31.8295 23.2148 31.7457 25.0596C31.6677 26.7659 31.3826 27.692 31.143 28.3081C30.8258 29.1248 30.4459 29.7063 29.8334 30.3184C29.2209 30.931 28.6394 31.3101 27.8224 31.6273C27.2062 31.8679 26.2794 32.1523 24.5732 32.2303C22.7284 32.3142 22.1742 32.3324 17.5016 32.3324C12.8287 32.3324 12.2749 32.3142 10.4301 32.2303C8.72384 32.1516 7.79778 31.8665 7.18054 31.6269C6.36386 31.3098 5.78052 30.9306 5.16802 30.3181C4.55551 29.7056 4.17634 29.1237 3.85842 28.3067C3.61889 27.6905 3.33342 26.7645 3.25576 25.0582C3.1719 23.2134 3.15513 22.6592 3.15513 17.9859C3.15513 13.3126 3.1719 12.7614 3.25576 10.9166C3.33378 9.21031 3.61889 8.28426 3.85842 7.66738C4.17561 6.8507 4.55551 6.26736 5.16802 5.65486C5.78052 5.04235 6.36386 4.66318 7.18054 4.34526C7.79742 4.10463 8.72384 3.82025 10.4301 3.74187C12.0445 3.66895 12.6701 3.64707 15.9317 3.64343V3.6478ZM26.8431 6.55355C25.6837 6.55355 24.7431 7.4931 24.7431 8.65285C24.7431 9.81223 25.6837 10.7529 26.8431 10.7529C28.0025 10.7529 28.9431 9.81223 28.9431 8.65285C28.9431 7.49346 28.0025 6.55282 26.8431 6.55282V6.55355ZM17.5017 9.00726C12.5385 9.00726 8.51458 13.0312 8.51458 17.9943C8.51458 22.9575 12.5385 26.9796 17.5017 26.9796C22.4648 26.9796 26.4873 22.9575 26.4873 17.9943C26.4873 13.0312 22.4644 9.00726 17.5013 9.00726H17.5017ZM17.5016 12.1609C20.7231 12.1609 23.335 14.7724 23.335 17.9943C23.335 21.2158 20.7231 23.8277 17.5016 23.8277C14.2798 23.8277 11.6682 21.2158 11.6682 17.9943C11.6682 14.7724 14.2798 12.1609 17.5016 12.1609Z" fill="#444249"/>
</svg>
