<svg width="36" height="36" viewBox="0 0 36 36" fill="none" xmlns="http://www.w3.org/2000/svg">
<path fill-rule="evenodd" clip-rule="evenodd" d="M18.4979 0.494141C8.84927 0.494141 0.997925 8.34425 0.997925 17.9941C0.997925 27.644 8.84927 35.4941 18.4979 35.4941C28.1478 35.4941 35.9992 27.6453 35.9992 17.9941C35.9992 8.34425 28.1478 0.494141 18.4979 0.494141ZM34.486 17.994C34.486 18.3004 34.4588 18.5993 34.4403 18.902C34.3279 18.6178 34.1574 18.2473 34.1166 18.0879C34.0573 17.8458 33.6954 17.0021 33.6954 17.0021C33.6954 17.0021 33.3335 16.5204 33.0926 16.3993C32.853 16.2783 32.6714 15.9768 32.2489 15.7372C31.8265 15.4951 31.6473 15.3753 31.2866 15.3753C30.9235 15.3753 30.564 14.8923 30.1403 14.6514C29.7179 14.4118 29.6586 14.5316 29.6586 14.5316C29.6586 14.5316 30.1403 15.2542 30.1403 15.4346C30.1403 15.6149 30.6814 15.9163 31.2261 15.7953C31.2261 15.7953 31.5868 16.4586 31.7672 16.639C31.9475 16.8193 31.7066 17.0009 31.3459 17.2418C30.984 17.4814 31.0445 17.4221 30.8617 17.6025C30.6814 17.7828 30.0798 18.0867 29.8982 18.2053C29.7179 18.3251 28.9952 18.687 28.6345 18.3251C28.4579 18.1509 28.5122 17.784 28.3937 17.5419C28.2726 17.3011 27.0077 15.4333 26.4049 14.5909C26.2999 14.4426 26.0429 13.9856 25.8638 13.8682C25.6835 13.746 26.2863 13.746 26.2863 13.746C26.2863 13.746 26.2863 13.3235 26.2258 13.0233C26.164 12.7219 26.2863 12.3007 26.2863 12.3007C26.2863 12.3007 25.6835 12.6614 25.5007 12.7825C25.3216 12.9035 25.14 12.5428 24.9003 12.2402C24.6595 11.94 24.4173 11.5768 24.358 11.2754C24.2975 10.9753 24.6595 10.8542 24.6595 10.8542L25.2005 10.554C25.2005 10.554 25.8638 10.4342 26.2863 10.4935C26.7075 10.554 27.3696 10.6146 27.3696 10.6146C27.3696 10.6146 27.55 10.1921 27.3091 10.0118C27.0695 9.8314 26.5247 9.53 26.2838 9.59053C26.0442 9.64982 26.4036 9.28912 26.7038 9.04825L26.0368 8.92719C26.0368 8.92719 25.4303 9.22859 25.2487 9.28912C25.0683 9.34842 24.7546 9.46947 24.5125 9.77088C24.2728 10.0723 24.6088 10.4935 24.3679 10.6146C24.1283 10.7356 23.9652 10.7949 23.7836 10.8542C23.6033 10.9147 23.0301 10.8542 23.0301 10.8542C22.4076 10.8542 22.8066 11.4224 22.9684 11.6238L22.4866 11.0358L22.1296 10.1933C22.1296 10.1933 21.6158 9.83264 21.3749 9.71282C21.134 9.59176 20.3916 9.17054 20.3916 9.17054L20.4435 9.71282L21.1414 10.4194L21.2032 10.4354L21.5663 10.9172L20.7647 10.9777V10.5009C20.0087 10.3181 20.2063 10.1303 20.1211 10.0723C19.942 9.95246 19.5232 9.64982 19.5232 9.64982C19.5232 9.64982 18.8142 9.77088 18.6326 9.8314C18.451 9.89193 18.4004 10.0723 18.0409 10.1921C17.6777 10.3132 17.5147 10.4935 17.3949 10.6739C17.275 10.8542 16.8822 11.3965 16.6438 11.6374C16.4017 11.8795 15.9545 11.8177 15.7742 11.8177C15.5926 11.8177 14.723 11.5768 14.723 11.5768V10.5553C14.723 10.5553 14.8403 9.98211 14.781 9.80176L15.3085 9.71282L16.1892 9.53123L16.4474 9.34965L16.818 8.8679C16.818 8.8679 16.4017 8.56649 16.7019 8.14527C16.8464 7.94268 17.3664 7.90439 17.6073 7.72404C17.847 7.54369 18.2114 7.42264 18.2114 7.42264C18.2114 7.42264 18.6338 7.06194 19.0551 6.63948C19.0551 6.63948 19.3565 6.4579 19.7172 6.33684C19.7172 6.33684 20.7424 7.24105 20.924 7.24105C21.1056 7.24105 21.7677 6.81983 21.7677 6.81983C21.7677 6.81983 21.948 6.27878 21.8888 6.0972C21.8282 5.91685 21.5268 5.31404 21.5268 5.31404C21.5268 5.31404 21.3465 5.61544 21.1661 5.85632C20.9858 6.0972 20.8647 6.3986 20.8647 6.3986C20.8647 6.3986 20.021 6.34054 19.9617 6.1602C19.9 5.97861 19.7814 5.68091 19.7196 5.5018C19.6616 5.32022 19.1786 5.32639 18.8191 5.44745C18.4559 5.5685 18.8772 4.7977 18.8772 4.7977C18.8772 4.7977 19.2403 4.34312 19.48 4.34312C19.7196 4.34312 20.2644 4.03431 20.5028 3.97501C20.7449 3.91448 21.47 3.63902 21.7689 3.63902C22.0703 3.63902 22.4323 3.76872 22.6139 3.76872C22.7954 3.76872 23.5168 3.76872 23.5168 3.76872L24.7805 3.66743C24.7805 3.66743 25.8663 4.06889 25.5031 4.311C25.5031 4.311 25.9268 4.57165 26.1072 4.75199C26.2764 4.92246 26.7137 4.59512 26.9645 4.45553C31.4719 7.28429 34.486 12.2883 34.486 17.994ZM5.74011 8.56669C5.74011 8.80756 5.41153 8.86562 5.74011 9.4709C6.1601 10.2541 5.7994 10.616 5.7994 10.616C5.7994 10.616 4.77413 11.3386 4.59378 11.4597C4.41344 11.5807 3.93168 12.2428 4.23185 12.0613C4.53326 11.8809 4.89395 11.7006 4.59378 12.1823C4.29238 12.6653 3.7501 13.4472 3.63028 13.7499C3.51046 14.0525 2.90765 14.7739 2.90765 15.1358C2.90765 15.4978 2.66677 16.2216 2.7273 16.523C2.76806 16.733 2.63465 17.3519 2.52966 17.6064C2.61118 14.2193 3.75133 11.0977 5.63388 8.54445C5.69564 8.55063 5.74011 8.56669 5.74011 8.56669ZM7.67576 6.2567C9.14944 4.89667 10.8763 3.81211 12.7811 3.07836C12.5934 3.31924 12.3661 3.56629 12.3661 3.56629C12.3661 3.56629 11.9448 3.56505 11.1604 4.40997C10.3785 5.25366 10.5589 5.01278 10.3785 5.25243C10.1982 5.49207 10.2575 5.55383 9.83501 5.85647C9.41502 6.15664 9.23343 6.51857 9.23343 6.51857L8.5701 6.75945L8.02905 6.51857C8.02905 6.51857 7.54483 6.70016 7.60535 6.45804C7.62265 6.39381 7.64859 6.32711 7.67576 6.2567ZM14.8971 7.66241L14.6575 7.30171L14.8971 6.75943L15.4777 6.99166V5.91575L16.0323 5.61558L16.4931 6.27768L17.2021 7.06207L16.7315 7.42277L15.4764 7.66365V7.02502L14.8971 7.66241ZM22.7312 13.326C22.872 13.2148 23.3328 13.5064 23.3328 13.5064C23.3328 13.5064 24.8386 13.8078 25.0794 13.9881C25.3216 14.1697 25.7428 14.2907 25.8638 14.4723C25.9849 14.6527 26.4049 15.195 26.4642 15.3753C26.5259 15.5557 26.8273 16.2202 26.8879 16.4599C26.9484 16.7007 27.1287 17.3036 27.3091 17.605C27.4894 17.9076 28.5147 19.2318 28.8754 19.8346L29.9624 19.6543C29.9624 19.6543 29.8401 20.1953 29.7203 20.3769C29.6005 20.5572 29.2386 21.039 29.0582 21.2799C28.8766 21.5208 28.637 21.8827 28.2751 22.1829C27.9144 22.483 27.9119 22.7844 27.7328 23.0265C27.5524 23.2674 27.3103 23.8097 27.3103 23.8097C27.3103 23.8097 27.4314 25.0153 27.4907 25.2562C27.55 25.4971 27.0695 26.1592 27.0695 26.1592L26.5259 26.7027L25.7996 27.665L25.8589 28.5679C25.8589 28.5679 25.3104 28.9916 25.0078 29.2313C24.7089 29.4709 24.7558 29.6525 24.5149 29.8946C24.2753 30.1343 23.3328 30.5567 23.0919 30.6172C22.851 30.6778 21.5219 30.8581 21.5219 30.8581V30.3171L21.4947 29.7143C21.4947 29.7143 21.3119 28.9916 21.1303 28.7508C20.9487 28.5099 21.0278 28.1467 20.7264 27.8465C20.425 27.5451 20.3138 27.3055 20.2533 27.1227C20.1927 26.9423 20.3187 26.4013 20.3187 26.4013C20.3187 26.4013 20.5621 25.7379 20.6819 25.4971C20.803 25.2562 20.6831 24.8955 20.5621 24.6534C20.441 24.4113 20.383 23.8085 20.383 23.6293C20.383 23.449 19.8987 23.1464 19.7184 22.966C19.538 22.7857 19.5986 22.5436 19.5986 22.3051C19.5986 22.0618 19.4182 21.5208 19.4775 21.0983C19.538 20.6771 18.9365 20.9772 18.5745 21.0983C18.2126 21.2193 17.973 20.9772 17.973 20.6153C17.973 20.2534 17.3109 20.556 16.8884 20.7956C16.4647 21.0365 15.9842 21.0365 15.5 21.2181C15.0194 21.3985 14.7798 21.0378 14.7798 21.0378C14.7798 21.0378 14.3561 20.6771 14.0572 20.4955C13.7545 20.3151 13.4531 19.9544 13.211 19.653C12.9714 19.3504 12.3673 18.4462 12.3093 18.0867C12.2487 17.7235 12.3093 17.4814 12.3093 17.0602C12.3093 16.639 12.3093 16.3981 12.3686 16.0967C12.4291 15.7953 12.6094 15.4334 12.791 15.132C12.9714 14.8306 13.6347 14.4699 13.8138 14.3488C13.9942 14.229 14.4166 13.8683 14.4166 13.6262C14.4166 13.3853 14.6587 13.2655 14.7773 13.0234C14.8996 12.7825 15.3208 12.1809 15.8631 12.4218C15.8631 12.4218 16.3436 12.3625 16.524 12.302C16.7043 12.2414 17.1861 12.0623 17.4245 11.9413C17.6654 11.8202 18.2657 11.7634 18.2657 11.7634C18.2657 11.7634 18.7401 11.9524 18.9204 11.9524C19.1008 11.9524 19.6887 11.8474 19.6887 11.8474C19.6887 11.8474 19.9605 12.7207 19.9605 12.9023C19.9605 13.0839 20.1408 13.263 20.4435 13.3841C20.7412 13.5064 22.1284 13.809 22.7312 13.326ZM29.6598 25.1363C29.6598 25.3167 29.5992 25.7997 29.5387 26.0405C29.4757 26.2814 29.3571 26.7039 29.2978 26.9423C29.2373 27.1844 28.9359 27.6662 28.7568 27.7872C28.5764 27.9083 28.2738 28.2702 28.0947 28.3295C27.9143 28.39 27.7921 27.907 27.8526 27.6662C27.9143 27.4253 28.2145 26.7632 28.2145 26.7632C28.2145 26.7632 28.275 26.4025 28.3343 26.1604C28.3961 25.9207 29.1187 25.6193 29.1187 25.6193L29.6017 24.7151C29.5992 24.7139 29.6598 24.9572 29.6598 25.1363ZM2.92244 21.5467C3.00026 21.5665 3.11144 21.6233 3.26831 21.7629C3.4956 21.9605 3.63025 22.0618 3.93165 22.1841C4.23182 22.3064 4.35288 22.4843 4.71481 22.6659C5.07674 22.8475 4.95692 22.7276 5.43744 23.2687C5.92043 23.8097 5.8599 23.8097 5.97972 24.1124C6.09954 24.415 6.28113 24.7139 6.40218 24.8968C6.52324 25.0771 6.88393 25.1969 7.06428 25.318C7.24463 25.439 7.54604 25.5589 7.72639 25.5589C7.90797 25.5589 8.45025 26.1011 8.75166 26.1604C9.05306 26.2222 9.05306 26.825 9.05306 26.825L8.75166 27.6675L8.50954 28.5704L8.75166 29.2931C8.75166 29.2931 8.38849 29.5957 8.15008 29.5957C7.92773 29.5957 7.85238 29.7365 7.60904 29.6698C5.31144 27.5242 3.64507 24.7176 2.92244 21.5467Z" fill="#444249"/>
</svg>
